<?xml version="1.0" standalone="no"?>
<!DOCTYPE svg PUBLIC "-//W3C//DTD SVG 20010904//EN"
 "http://www.w3.org/TR/2001/REC-SVG-20010904/DTD/svg10.dtd">
<svg version="1.0" xmlns="http://www.w3.org/2000/svg"
 width="512.000000pt" height="512.000000pt" viewBox="0 0 512.000000 512.000000"
 preserveAspectRatio="xMidYMid meet">
<metadata>
Created by potrace 1.11, written by Peter Selinger 2001-2013
</metadata>
<g transform="translate(0.000000,512.000000) scale(0.100000,-0.100000)"
fill="#000000" stroke="none">
<path d="M2290 5109 c-191 -20 -430 -76 -634 -150 -81 -29 -101 -48 -53 -50
12 0 16 -3 9 -6 -18 -7 5 -33 29 -33 18 0 19 -2 4 -30 -15 -30 -15 -30 11 -30
23 0 25 -2 13 -16 -10 -13 -10 -17 2 -25 8 -5 19 -9 26 -9 16 0 29 -25 37 -72
4 -20 15 -47 25 -59 23 -28 17 -59 -10 -52 -39 11 -19 -39 28 -68 33 -20 35
-25 30 -61 -6 -42 10 -52 30 -20 8 13 20 18 40 15 24 -4 28 -9 29 -36 3 -74
16 -107 58 -146 14 -14 26 -31 26 -39 0 -7 6 -12 13 -9 6 2 11 11 9 21 -2 9 4
16 13 16 19 0 19 -14 0 -30 -17 -14 -20 -40 -6 -40 6 0 13 5 17 11 3 6 16 8
28 5 25 -6 51 7 42 22 -6 11 31 28 40 19 3 -3 -2 -21 -10 -41 -16 -38 -9 -44
26 -25 18 10 20 9 15 -6 -4 -9 -7 -19 -7 -21 0 -2 -7 -4 -15 -4 -18 0 -38 -37
-31 -56 5 -13 10 -12 42 1 21 8 45 13 56 9 13 -4 21 2 28 20 5 14 13 26 18 26
14 0 32 -43 28 -65 -3 -11 -5 -24 -5 -29 -1 -4 -7 -6 -15 -3 -9 4 -22 -7 -35
-29 -16 -27 -27 -34 -51 -34 -20 0 -30 5 -30 15 0 9 -6 12 -17 8 -12 -5 -15
-2 -10 9 3 10 0 19 -9 22 -8 3 -14 -1 -14 -9 0 -9 -10 -15 -25 -15 -18 0 -29
8 -37 28 -8 21 -12 23 -15 10 -2 -9 0 -26 6 -36 9 -17 7 -21 -17 -25 -15 -3
-31 -2 -36 3 -8 8 -17 7 -56 -7 -8 -3 -38 -7 -67 -9 -71 -4 -157 -56 -149 -89
4 -14 -2 -32 -15 -48 -19 -26 -19 -27 -1 -45 11 -11 21 -40 25 -70 3 -30 16
-64 28 -82 l23 -30 -32 -33 c-18 -18 -32 -38 -32 -44 0 -5 -9 -22 -20 -35 -10
-14 -16 -28 -13 -32 3 -3 -207 -6 -468 -6 l-475 0 6 58 c4 31 12 69 20 84 16
34 7 66 -15 48 -8 -7 -16 -22 -16 -34 -1 -18 -2 -19 -6 -2 -3 10 3 38 12 62 9
24 18 74 19 112 6 135 23 168 131 254 62 50 81 81 90 146 l7 52 19 -23 c19
-21 20 -21 18 -2 -4 33 22 138 41 170 11 18 16 41 13 56 -3 15 3 41 12 60 10
18 21 44 25 58 4 14 11 35 15 46 6 16 5 17 -4 5 -9 -13 -11 -13 -11 3 0 19
-19 24 -21 5 -1 -7 -4 -2 -8 11 -6 22 -10 21 -101 -50 -132 -100 -359 -332
-462 -469 -141 -189 -258 -397 -341 -605 -27 -68 -48 -103 -85 -141 -32 -33
-57 -72 -71 -108 -21 -56 -21 -69 -21 -696 0 -627 0 -640 21 -696 14 -36 39
-75 71 -108 37 -38 58 -73 85 -141 130 -327 318 -611 572 -866 221 -220 424
-364 708 -501 683 -331 1523 -331 2206 0 284 137 487 281 708 501 256 257 442
539 574 871 27 67 49 106 76 132 21 21 51 61 66 90 l28 53 3 651 c3 646 2 652
-19 709 -14 37 -39 76 -71 109 -37 38 -58 73 -85 141 -47 117 -132 287 -200
400 -196 322 -517 642 -843 841 -318 194 -718 328 -1084 363 -126 13 -402 12
-526 0z m-390 -644 c8 -9 8 -15 2 -15 -18 0 -42 12 -42 21 0 14 26 10 40 -6z
m303 -150 c-27 -55 -59 -78 -73 -55 -22 36 31 99 92 109 4 0 -4 -24 -19 -54z
m-142 -597 c7 -13 19 -28 28 -35 13 -10 14 -16 3 -47 -10 -28 -10 -39 0 -55
11 -18 9 -24 -24 -56 -24 -22 -35 -40 -32 -50 5 -13 -14 -15 -150 -15 l-156 0
27 41 c24 36 30 40 57 35 34 -5 67 4 68 19 0 6 7 24 14 40 7 17 15 38 18 47 3
11 11 15 20 12 17 -7 96 54 96 74 0 20 18 14 31 -10z m-1358 -206 c-13 -42
-19 -51 -21 -33 -2 13 1 28 7 34 6 6 11 23 11 37 0 28 12 49 18 30 2 -5 -4
-36 -15 -68z m3642 36 c0 -15 8 -33 19 -41 12 -9 17 -20 13 -31 -5 -13 -21
-16 -89 -15 -46 1 -71 4 -55 6 16 3 27 11 27 20 0 8 10 33 22 55 27 47 63 51
63 6z m103 -85 c-10 -2 -26 -2 -35 0 -10 3 -2 5 17 5 19 0 27 -2 18 -5z
m-3658 -734 c41 -130 79 -237 84 -238 5 -1 43 105 85 236 l77 238 121 3 120 3
52 -163 c29 -90 64 -200 79 -245 14 -46 29 -83 32 -83 3 0 41 109 83 242 42
133 79 243 81 245 2 2 55 2 119 1 l115 -3 -142 -407 -141 -408 -120 0 -120 0
-74 221 c-40 121 -76 218 -79 214 -4 -4 -39 -102 -78 -218 l-71 -212 -122 0
-123 0 -139 400 c-76 220 -138 404 -139 408 0 4 50 6 112 5 l112 -3 76 -236z
m1389 24 c38 -120 73 -230 76 -245 4 -16 11 -28 15 -28 4 0 29 66 54 148 26
81 61 191 79 245 l31 97 117 0 116 0 12 -42 c47 -162 144 -449 149 -443 4 3
41 113 83 243 l76 237 118 3 117 3 -5 -23 c-4 -13 -66 -196 -140 -408 l-134
-385 -121 -3 -121 -3 -35 113 c-19 62 -50 161 -68 220 -18 60 -35 108 -38 108
-3 0 -14 -24 -24 -52 -10 -29 -45 -129 -79 -221 l-60 -168 -116 3 -116 3 -137
395 c-75 217 -137 401 -137 408 -1 9 27 12 109 12 l109 0 70 -217z m1390 55
c29 -90 64 -200 79 -245 14 -46 29 -83 32 -83 3 0 18 37 32 83 15 45 50 155
79 245 l52 163 110 -3 111 -3 76 -237 c41 -130 78 -240 82 -243 6 -6 158 449
158 474 0 7 38 11 120 11 66 0 120 -2 120 -4 0 -4 -240 -700 -270 -784 l-12
-33 -121 3 -120 3 -71 212 c-39 116 -74 214 -78 218 -3 4 -39 -93 -79 -214
l-74 -221 -115 0 -115 0 -63 183 c-35 100 -99 284 -142 410 l-79 227 118 0
118 0 52 -162z m-3359 -1150 c0 -19 -2 -20 -10 -8 -13 19 -13 30 0 30 6 0 10
-10 10 -22z m223 -5 c-7 -2 -21 -2 -30 0 -10 3 -4 5 12 5 17 0 24 -2 18 -5z
m220 0 c-23 -2 -64 -2 -90 0 -26 2 -7 3 42 3 50 0 71 -1 48 -3z m330 0 c-7 -2
-21 -2 -30 0 -10 3 -4 5 12 5 17 0 24 -2 18 -5z m1172 -19 c-1 -15 -9 -30 -16
-35 -18 -12 0 -24 56 -41 22 -6 47 -19 55 -28 39 -43 104 -54 113 -20 8 32 36
36 81 10 32 -19 58 -23 138 -26 l99 -4 19 43 c11 23 20 59 20 80 l0 39 -37 -6
c-21 -4 -45 -2 -53 4 -10 6 314 10 973 10 656 0 986 -3 982 -10 -3 -5 -2 -10
3 -10 16 0 42 -74 39 -112 -2 -21 -13 -48 -25 -61 -12 -13 -22 -28 -22 -33 0
-13 -48 -58 -75 -71 -26 -13 -112 -27 -150 -25 -33 2 -56 -12 -73 -45 -16 -29
-17 -28 24 -72 53 -60 57 -141 6 -141 -8 0 -24 -7 -34 -17 -17 -15 -18 -15
-18 0 0 10 -6 17 -13 17 -8 0 -22 9 -32 20 -10 11 -26 20 -36 20 -9 0 -19 6
-22 13 -8 21 -24 -5 -31 -50 -3 -24 -2 -43 3 -43 5 0 11 -10 15 -23 3 -13 17
-29 31 -37 24 -13 54 -84 40 -98 -12 -12 -61 37 -73 74 -7 21 -20 46 -30 54
-11 10 -17 31 -18 65 -2 66 -14 134 -26 141 -5 4 -15 1 -21 -5 -17 -17 -37
-13 -37 8 0 15 -56 121 -74 138 -2 3 -15 -3 -29 -12 -14 -8 -29 -15 -33 -14
-21 4 -34 -2 -34 -15 0 -7 -33 -38 -74 -69 -72 -54 -73 -56 -79 -108 -5 -40
-14 -60 -35 -82 l-29 -28 -46 99 c-31 67 -48 120 -53 162 -6 53 -9 60 -19 47
-14 -19 -41 -22 -51 -6 -3 6 0 15 7 20 11 7 9 9 -7 9 -11 0 -31 11 -44 25 -22
24 -30 25 -127 25 -80 0 -105 3 -109 14 -4 10 -15 13 -38 9 -38 -6 -96 19 -96
42 0 13 -36 45 -52 45 -19 0 -6 -58 17 -80 14 -13 25 -27 25 -32 0 -17 35 -48
54 -48 11 0 30 9 42 21 l22 21 11 -21 c7 -12 18 -21 25 -21 7 0 20 -8 30 -18
15 -18 15 -20 -1 -43 -10 -13 -23 -33 -29 -44 -5 -11 -30 -30 -53 -42 -24 -12
-51 -29 -60 -36 -26 -23 -162 -87 -172 -81 -5 3 -9 16 -9 30 0 32 -32 94 -64
125 -14 13 -26 33 -26 44 0 11 -18 44 -39 73 -22 29 -43 61 -46 72 -7 22 -25
27 -25 8 -1 -7 -10 -2 -21 11 -31 37 -35 16 -7 -36 14 -27 29 -59 33 -73 4
-14 18 -38 31 -53 13 -16 24 -39 24 -51 0 -13 9 -31 20 -41 11 -10 20 -23 20
-29 0 -7 20 -29 45 -49 25 -21 45 -46 45 -56 0 -35 22 -41 85 -26 84 20 88 20
81 -11 -16 -63 -70 -137 -151 -205 -94 -79 -119 -125 -102 -189 13 -52 20
-127 13 -155 -4 -14 -28 -39 -62 -61 -63 -42 -70 -53 -54 -84 17 -32 3 -79
-26 -86 -18 -5 -24 -13 -24 -34 0 -36 -70 -151 -101 -167 -27 -14 -173 -16
-204 -3 -11 5 -17 9 -13 9 9 1 -41 114 -54 122 -6 4 -18 41 -28 83 -11 43 -30
96 -44 120 -22 37 -23 47 -15 88 6 26 17 52 25 59 16 13 19 45 5 53 -4 3 -11
28 -13 55 -4 40 -13 59 -41 91 -39 43 -44 64 -25 116 10 29 9 36 -7 54 -11 12
-31 20 -49 20 -20 0 -36 7 -44 20 -15 25 -79 27 -123 4 -21 -10 -43 -13 -68
-9 -20 3 -50 1 -65 -5 -25 -9 -35 -6 -78 21 -27 18 -60 48 -74 68 -36 55 -50
71 -63 71 -6 0 -17 15 -24 33 -12 27 -12 35 0 53 7 12 14 50 14 85 1 82 31
142 98 199 28 23 51 50 51 61 0 10 20 41 45 69 25 28 45 55 45 60 0 6 72 10
184 10 l184 0 -3 -26z m295 16 c0 -5 -4 -10 -10 -10 -5 0 -10 5 -10 10 0 6 5
10 10 10 6 0 10 -4 10 -10z m160 6 c0 -11 -19 -15 -25 -6 -3 5 1 10 9 10 9 0
16 -2 16 -4z m2186 -11 c-25 -19 -36 -19 -36 0 0 10 10 15 28 15 26 -1 26 -1
8 -15z"/>
</g>
</svg>
